<svg width="31" height="31" viewBox="0 0 31 31" fill="none" xmlns="http://www.w3.org/2000/svg">
<g id="RocketLaunch">
<path id="Vector (Stroke)" fill-rule="evenodd" clip-rule="evenodd" d="M9.93757 19.1276C10.1006 19.6123 9.83978 20.1374 9.35508 20.3004C7.78558 20.8282 6.95147 22.1457 6.50531 23.4855C6.32814 24.0175 6.2211 24.5297 6.15679 24.9532C6.58028 24.8889 7.09246 24.7819 7.62448 24.6047C8.96429 24.1585 10.2818 23.3244 10.8096 21.7549C10.9726 21.2702 11.4977 21.0094 11.9824 21.1724C12.4671 21.3354 12.7279 21.8605 12.5649 22.3452C11.7732 24.6993 9.81533 25.8269 8.20956 26.3617C7.39837 26.6318 6.63897 26.7652 6.08468 26.8317C5.80619 26.8651 5.57595 26.882 5.41239 26.8906C5.33052 26.8949 5.26509 26.8971 5.21839 26.8983C5.19503 26.8989 5.17633 26.8992 5.16257 26.8994L5.14566 26.8995L5.14005 26.8995L5.13797 26.8995L5.13711 26.8995C5.13673 26.8995 5.13637 26.8995 5.13637 25.9736C4.21045 25.9736 4.21045 25.9733 4.21045 25.9729L4.21045 25.972L4.21046 25.9699L4.21048 25.9643L4.21064 25.9474C4.2108 25.9337 4.21111 25.915 4.21169 25.8916C4.21285 25.8449 4.21508 25.7795 4.21939 25.6976C4.228 25.534 4.24494 25.3038 4.27835 25.0253C4.34484 24.471 4.4782 23.7116 4.74833 22.9004C5.28306 21.2947 6.41074 19.3368 8.76482 18.5451C9.24952 18.3821 9.77458 18.6429 9.93757 19.1276ZM5.13637 25.9736H4.21045C4.21045 26.485 4.625 26.8995 5.13637 26.8995V25.9736Z" fill="white"/>
<path id="Vector (Stroke)_2" fill-rule="evenodd" clip-rule="evenodd" d="M25.3088 5.80221C24.2341 5.64721 21.5887 5.58881 18.8813 8.29622L11.6773 15.5002L15.6108 19.4338L22.8148 12.2298C25.5222 9.52238 25.4638 6.87694 25.3088 5.80221ZM25.5774 3.96994C24.0993 3.75594 20.8045 3.75409 17.5718 6.98677L9.71309 14.8455C9.53945 15.0192 9.44189 15.2547 9.44189 15.5002C9.44189 15.7458 9.53945 15.9813 9.71309 16.155L14.9561 21.398C15.3177 21.7596 15.904 21.7596 16.2656 21.398L24.1243 13.5392C27.357 10.3066 27.3551 7.01177 27.1411 5.5337C27.087 5.13812 26.9048 4.77106 26.6224 4.48865C26.34 4.20624 25.9729 4.02409 25.5774 3.96994Z" fill="white"/>
<path id="Vector (Stroke)_3" fill-rule="evenodd" clip-rule="evenodd" d="M22.162 13.2661C22.6734 13.2661 23.088 13.6807 23.088 14.192V21.6688L23.0879 21.682C23.0809 22.1684 22.8829 22.6324 22.5368 22.9739L18.8002 26.722C18.563 26.959 18.2659 27.1271 17.9407 27.2084C17.6154 27.2897 17.2742 27.2812 16.9534 27.1838C16.6326 27.0863 16.3442 26.9036 16.1191 26.6552C15.8942 26.4069 15.7408 26.1023 15.6754 25.7737C15.6753 25.7735 15.6754 25.774 15.6754 25.7737L14.7033 20.9249C14.6028 20.4235 14.9278 19.9356 15.4292 19.8351C15.9305 19.7345 16.4185 20.0595 16.519 20.5609L17.4915 25.4118L21.2361 21.6556V14.192C21.2361 13.6807 21.6507 13.2661 22.162 13.2661Z" fill="white"/>
<path id="Vector (Stroke)_4" fill-rule="evenodd" clip-rule="evenodd" d="M9.42883 8.02304L9.44202 8.02295H16.9188C17.4302 8.02295 17.8447 8.4375 17.8447 8.94887C17.8447 9.46024 17.4302 9.87479 16.9188 9.87479H9.45511L9.44763 9.88242L9.44759 9.88238L5.69901 13.6194L5.70044 13.6197L10.5499 14.5919C11.0513 14.6924 11.3763 15.1804 11.2758 15.6817C11.1753 16.1831 10.6873 16.5081 10.1859 16.4076L5.33787 15.4357C5.33759 15.4356 5.33732 15.4356 5.33704 15.4355C5.00853 15.37 4.70392 15.2167 4.45567 14.9918C4.2072 14.7667 4.02451 14.4783 3.92708 14.1575C3.82966 13.8367 3.82115 13.4955 3.90246 13.1702C3.98378 12.845 4.15187 12.5479 4.3888 12.3107L4.39019 12.3093L4.39019 12.3093L8.13699 8.57408C8.47848 8.22796 8.94249 8.02997 9.42883 8.02304Z" fill="white"/>
</g>
</svg>
